<?xml version="1.0" standalone="no"?>
<!DOCTYPE svg PUBLIC "-//W3C//DTD SVG 20010904//EN"
 "http://www.w3.org/TR/2001/REC-SVG-20010904/DTD/svg10.dtd">
<svg version="1.0" xmlns="http://www.w3.org/2000/svg"
 width="256.000000pt" height="256.000000pt" viewBox="0 0 256.000000 256.000000"
 preserveAspectRatio="xMidYMid meet">
<metadata>
Created by potrace 1.16, written by Peter Selinger 2001-2019
</metadata>
<g transform="translate(0.000000,256.000000) scale(0.100000,-0.100000)"
fill="#000000" stroke="none">
<path d="M1015 2366 c-200 -53 -354 -135 -497 -266 -169 -154 -301 -402 -338
-632 -20 -123 -8 -351 24 -468 100 -360 373 -649 718 -759 148 -47 199 -54
390 -49 150 5 185 9 263 32 419 124 715 455 790 880 18 103 19 128 6 107 -12
-18 -18 3 -26 94 -27 277 -139 533 -315 719 -39 41 -125 116 -191 167 -73 56
-116 95 -109 99 16 10 -136 64 -233 84 -51 11 -128 16 -234 16 -132 -1 -173
-5 -248 -24z m363 -262 c69 -34 114 -89 170 -206 l47 -97 40 7 c22 4 83 7 135
6 114 -1 180 -25 234 -85 78 -85 56 -229 -56 -377 -27 -35 -48 -67 -48 -72 0
-5 18 -33 40 -62 22 -29 55 -82 73 -118 28 -56 32 -75 32 -140 0 -100 -27
-145 -112 -187 -53 -26 -67 -28 -168 -28 -60 0 -124 3 -140 7 -31 7 -31 6 -73
-86 -146 -316 -378 -316 -524 0 -42 92 -42 93 -73 86 -16 -4 -79 -7 -140 -7
-101 0 -115 2 -168 28 -85 42 -112 87 -112 186 0 65 5 86 32 141 18 36 51 89
74 119 47 61 47 56 -25 158 -103 144 -114 286 -30 365 55 51 119 72 224 72 52
1 113 -2 136 -6 l40 -8 37 83 c51 112 112 187 178 221 67 33 111 33 177 0z"/>
<path d="M1252 2058 c-19 -5 -53 -29 -76 -53 -45 -45 -131 -204 -118 -216 4
-4 32 -14 62 -24 30 -10 80 -28 111 -41 l57 -23 58 23 c33 13 85 32 117 42 66
20 68 26 32 103 -68 145 -156 214 -243 189z"/>
<path d="M696 1736 c-51 -19 -94 -62 -102 -102 -12 -66 35 -183 113 -278 l22
-27 95 78 c52 43 97 87 100 98 15 64 43 231 39 235 -3 3 -55 6 -116 8 -78 1
-124 -2 -151 -12z"/>
<path d="M1632 1743 c-15 -3 -22 -10 -18 -19 3 -8 13 -56 22 -106 9 -51 18
-102 21 -113 2 -11 47 -55 99 -98 l95 -78 22 27 c79 96 125 212 113 279 -8 41
-61 90 -113 104 -37 11 -194 13 -241 4z"/>
<path d="M1021 1683 c-16 -62 -24 -136 -15 -132 13 6 145 79 173 96 13 8 19
18 15 23 -11 9 -133 50 -151 50 -7 0 -17 -17 -22 -37z"/>
<path d="M1452 1696 c-35 -12 -63 -26 -61 -31 2 -13 180 -117 187 -110 5 5
-15 124 -26 153 -6 16 -26 14 -100 -12z"/>
<path d="M1162 1566 c-62 -36 -129 -76 -147 -91 l-35 -26 0 -174 0 -173 78
-50 c43 -28 113 -67 155 -88 l77 -38 77 38 c42 21 112 60 155 88 l78 50 -2
177 -3 176 -68 46 c-69 46 -225 129 -242 129 -6 0 -61 -29 -123 -64z m219
-195 c34 -34 39 -44 39 -85 0 -88 -49 -140 -130 -140 -81 0 -130 52 -130 140
0 41 5 51 39 85 35 35 44 39 91 39 47 0 56 -4 91 -39z"/>
<path d="M839 1340 l-64 -60 63 -60 c35 -34 66 -60 67 -58 6 5 8 228 3 233 -2
3 -33 -22 -69 -55z"/>
<path d="M1670 1280 l0 -122 38 30 c20 17 50 44 66 61 29 30 29 31 10 52 -10
12 -40 39 -66 61 l-48 40 0 -122z"/>
<path d="M695 1187 c-49 -57 -94 -152 -101 -212 -7 -69 16 -112 80 -144 41
-21 62 -25 145 -25 125 0 155 7 145 37 -4 12 -15 67 -24 121 -15 91 -19 101
-51 128 -19 17 -62 54 -96 84 l-62 54 -36 -43z"/>
<path d="M1775 1167 c-38 -35 -81 -70 -93 -79 -20 -13 -27 -34 -42 -125 -11
-59 -22 -116 -25 -125 -9 -24 29 -32 146 -32 83 0 104 4 145 25 63 32 87 75
80 142 -6 60 -55 159 -104 214 l-37 42 -70 -62z"/>
<path d="M1003 965 c12 -83 26 -125 44 -125 25 0 153 43 153 51 0 4 -28 23
-62 42 -35 19 -81 45 -102 58 l-39 23 6 -49z"/>
<path d="M1545 994 c-11 -9 -53 -34 -92 -56 -40 -22 -73 -43 -73 -47 0 -8 128
-51 153 -51 17 0 32 42 43 124 7 49 1 55 -31 30z"/>
<path d="M1222 830 c-24 -11 -69 -27 -100 -36 -32 -9 -60 -19 -65 -23 -14 -14
72 -171 121 -220 79 -79 144 -80 221 -2 43 42 115 162 123 204 2 14 -17 24
-97 53 -126 45 -150 48 -203 24z"/>
</g>
</svg>
